<svg xmlns="http://www.w3.org/2000/svg" version="1.1" xmlns:xlink="http://www.w3.org/1999/xlink" xmlns:svgjs="http://svgjs.dev/svgjs" width="1179" height="2556" preserveAspectRatio="none" viewBox="0 0 1179 2556"><g mask="url(&quot;#SvgjsMask1040&quot;)" fill="none"><rect width="1179" height="2556" x="0" y="0" fill="rgba(21, 67, 96, 1)"></rect><path d="M0,954.734C183.361,929.22,362.347,904.526,527.327,820.537C706.433,729.356,897.14,630.444,988.572,451.466C1081.323,269.907,1068.864,51.435,1021.539,-146.875C976.805,-334.326,831.933,-468.974,729.901,-632.462C605.532,-831.741,577.339,-1133.857,356.171,-1213.006C137.108,-1291.402,-70.659,-1066.446,-293.216,-998.603C-512.746,-931.683,-795.466,-992.91,-942.88,-817.01C-1090.433,-640.944,-972.395,-371.864,-1008.573,-145.011C-1045.537,86.772,-1232.072,306.059,-1157.476,528.602C-1082.361,752.695,-852.696,900.048,-630.902,981.703C-429.287,1055.929,-212.794,984.344,0,954.734" fill="#11364d"></path><path d="M1179 3212.076C1305.713 3222.607 1439.339 3195.66 1541.034 3119.3360000000002 1639.984 3045.072 1653.314 2906.781 1722.467 2804.193 1809.905 2674.4809999999998 1998.723 2594.325 2000.383 2437.903 2002.007 2284.9049999999997 1836.161 2188.757 1730.17 2078.408 1629.586 1973.688 1530.779 1869.071 1397.866 1810.612 1251.881 1746.403 1084.665 1670.8809999999999 936.232 1729.2089999999998 788.3620000000001 1787.316 746.697 1972.2820000000002 655.456 2102.3469999999998 574.907 2217.171 454.95899999999995 2310.239 431.62 2448.543 408.07399999999996 2588.072 448.605 2736.351 528.791 2852.94 603.298 2961.272 738.587 2998.642 853.678 3062.2110000000002 960.35 3121.13 1057.557 3201.983 1179 3212.076" fill="#195073"></path></g><defs><mask id="SvgjsMask1040"><rect width="1179" height="2556" fill="#ffffff"></rect></mask></defs></svg>